<svg width="56.7" height="56.7" xmlns="http://www.w3.org/2000/svg">

 <g>
  <title>background</title>
  <rect fill="none" id="canvas_background" height="402" width="582" y="-1" x="-1"/>
 </g>
 <g>
  <title>Layer 1</title>
  <circle fill="#ffffff" id="svg_2" r="4.4" cy="28.844341" cx="28.347641"/>
  <path fill="#ffffff" id="svg_3" d="m33.847641,17.961794l-11,0c-1.6,0 -3,0.5 -3.9,1.4c-0.9,0.9 -1.4,2.3 -1.4,3.9l0,11c0,1.6 0.5,3 1.5,4c1,0.9 2.3,1.4 3.9,1.4l10.9,0c1.6,0 3,-0.5 3.9,-1.4c1,-0.9 1.5,-2.3 1.5,-3.9l0,-11c0,-1.6 -0.5,-2.9 -1.4,-3.9c-1,-1 -2.3,-1.5 -4,-1.5zm-5.5,17.6c-3.8,0 -6.8,-3.1 -6.8,-6.8c0,-3.8 3.1,-6.8 6.8,-6.8s6.9,3 6.9,6.8c0,3.8 -3.1,6.8 -6.9,6.8zm7.1,-12.3c-0.9,0 -1.6,-0.7 -1.6,-1.6s0.7,-1.6 1.6,-1.6s1.6,0.7 1.6,1.6s-0.7,1.6 -1.6,1.6z"/>
  <path stroke="null" fill="#ffffff" id="svg_4" d="m28.382498,1.237738c-15.607949,0 -28.232025,11.885872 -28.232025,26.581131c0,14.695259 12.624076,26.581131 28.232025,26.581131c15.607949,0 28.232025,-11.885872 28.232025,-26.581131c0.114764,-14.695259 -12.624076,-26.581131 -28.232025,-26.581131zm15.034127,32.848227c0,2.485228 -0.918115,4.646295 -2.524815,6.159043c-1.606701,1.512747 -3.901987,2.269121 -6.426802,2.269121l-12.509312,0c-2.524815,0 -4.820102,-0.756374 -6.426802,-2.269121c-1.721465,-1.512747 -2.524815,-3.673815 -2.524815,-6.159043l0,-11.885872c0,-4.970455 3.557694,-8.428163 8.951618,-8.428163l12.624076,0c2.63958,0 4.820102,0.864427 6.426802,2.377174c1.606701,1.512747 2.410051,3.565761 2.410051,6.050989l0,11.885872z"/>
 </g>
</svg>